<svg width="250" height="100" viewBox="0 0 370 100" class="css-1j8o68f">
    <defs id="SvgjsDefs1109"></defs>
    <g id="SvgjsG1110" featurekey="JKiIdh-0" transform="matrix(1.25,0,0,1.25,-12.5,-12.5)" fill="#ffffff">
        <path xmlns="http://www.w3.org/2000/svg"
            d="M83.999,33.667c2.758,0,5.001,2.244,5.001,5.001c0,2.756-2.243,4.999-5.001,4.999c-2.757,0-4.999-2.243-4.999-4.999  C79,35.91,81.242,33.667,83.999,33.667 M83.999,32.667c-3.308,0-5.999,2.691-5.999,6.001c0,3.308,2.691,5.999,5.999,5.999  c3.309,0,6.001-2.691,6.001-5.999C90,35.358,87.308,32.667,83.999,32.667L83.999,32.667z">
        </path>
        <path xmlns="http://www.w3.org/2000/svg"
            d="M83.999,11C86.757,11,89,13.244,89,16.001C89,18.757,86.757,21,83.999,21C81.242,21,79,18.757,79,16.001  C79,13.244,81.242,11,83.999,11 M83.999,10C80.691,10,78,12.691,78,16.001C78,19.309,80.691,22,83.999,22  C87.308,22,90,19.309,90,16.001C90,12.691,87.308,10,83.999,10L83.999,10z">
        </path>
        <path xmlns="http://www.w3.org/2000/svg"
            d="M61.332,56.333c2.758,0,5.001,2.243,5.001,5.001c0,2.757-2.243,4.999-5.001,4.999c-2.757,0-4.999-2.242-4.999-4.999  C56.333,58.576,58.575,56.333,61.332,56.333 M61.332,55.333c-3.308,0-5.999,2.692-5.999,6.001c0,3.308,2.691,5.999,5.999,5.999  c3.309,0,6.001-2.691,6.001-5.999C67.333,58.025,64.641,55.333,61.332,55.333L61.332,55.333z">
        </path>
        <path xmlns="http://www.w3.org/2000/svg"
            d="M61.332,79c2.758,0,5.001,2.243,5.001,5.001c0,2.757-2.243,4.999-5.001,4.999c-2.757,0-4.999-2.242-4.999-4.999  C56.333,81.243,58.575,79,61.332,79 M61.332,78c-3.308,0-5.999,2.691-5.999,6.001c0,3.308,2.691,5.999,5.999,5.999  c3.309,0,6.001-2.691,6.001-5.999C67.333,80.691,64.641,78,61.332,78L61.332,78z">
        </path>
        <path xmlns="http://www.w3.org/2000/svg"
            d="M61.332,11c2.758,0,5.001,2.244,5.001,5.001c0,2.756-2.243,4.999-5.001,4.999c-2.757,0-4.999-2.243-4.999-4.999  C56.333,13.244,58.575,11,61.332,11 M61.332,10c-3.308,0-5.999,2.691-5.999,6.001c0,3.308,2.691,5.999,5.999,5.999  c3.309,0,6.001-2.691,6.001-5.999C67.333,12.691,64.641,10,61.332,10L61.332,10z">
        </path>
        <path xmlns="http://www.w3.org/2000/svg"
            d="M38.666,79c2.757,0,5.001,2.243,5.001,5.001c0,2.757-2.244,4.999-5.001,4.999c-2.756,0-4.999-2.242-4.999-4.999  C33.667,81.243,35.909,79,38.666,79 M38.666,78c-3.308,0-5.999,2.691-5.999,6.001c0,3.308,2.691,5.999,5.999,5.999  c3.309,0,6.001-2.691,6.001-5.999C44.667,80.691,41.974,78,38.666,78L38.666,78z">
        </path>
        <path xmlns="http://www.w3.org/2000/svg"
            d="M38.666,33.667c2.757,0,5.001,2.244,5.001,5.001c0,2.756-2.244,4.999-5.001,4.999c-2.756,0-4.999-2.243-4.999-4.999  C33.667,35.91,35.909,33.667,38.666,33.667 M38.666,32.667c-3.308,0-5.999,2.691-5.999,6.001c0,3.308,2.691,5.999,5.999,5.999  c3.309,0,6.001-2.691,6.001-5.999C44.667,35.358,41.974,32.667,38.666,32.667L38.666,32.667z">
        </path>
        <path xmlns="http://www.w3.org/2000/svg"
            d="M38.666,11c2.757,0,5.001,2.244,5.001,5.001c0,2.756-2.244,4.999-5.001,4.999c-2.756,0-4.999-2.243-4.999-4.999  C33.667,13.244,35.909,11,38.666,11 M38.666,10c-3.308,0-5.999,2.691-5.999,6.001c0,3.308,2.691,5.999,5.999,5.999  c3.309,0,6.001-2.691,6.001-5.999C44.667,12.691,41.974,10,38.666,10L38.666,10z">
        </path>
        <path xmlns="http://www.w3.org/2000/svg"
            d="M15.999,56.333c2.757,0,5.001,2.243,5.001,5.001c0,2.757-2.244,4.999-5.001,4.999c-2.756,0-4.999-2.242-4.999-4.999  C11,58.576,13.243,56.333,15.999,56.333 M15.999,55.333c-3.308,0-5.999,2.692-5.999,6.001c0,3.308,2.691,5.999,5.999,5.999  c3.309,0,6.001-2.691,6.001-5.999C22,58.025,19.308,55.333,15.999,55.333L15.999,55.333z">
        </path>
        <path xmlns="http://www.w3.org/2000/svg"
            d="M15.999,79C18.756,79,21,81.243,21,84.001C21,86.758,18.756,89,15.999,89C13.243,89,11,86.758,11,84.001  C11,81.243,13.243,79,15.999,79 M15.999,78C12.691,78,10,80.691,10,84.001C10,87.309,12.691,90,15.999,90  C19.308,90,22,87.309,22,84.001C22,80.691,19.308,78,15.999,78L15.999,78z">
        </path>
        <path xmlns="http://www.w3.org/2000/svg"
            d="M84.5,78.025V67.308c3.074-0.256,5.5-2.835,5.5-5.974c0-3.309-2.692-6.001-6.001-6.001c-1.474,0-2.823,0.537-3.869,1.423  L65.91,42.537c0.886-1.045,1.423-2.395,1.423-3.869c0-3.31-2.692-6.001-6.001-6.001c-3.308,0-5.999,2.691-5.999,6.001  c0,1.474,0.537,2.824,1.423,3.87l-14.22,14.219c-1.046-0.886-2.396-1.423-3.871-1.423c-1.474,0-2.824,0.537-3.87,1.423  L20.577,42.537C21.463,41.492,22,40.142,22,38.667c0-3.141-2.426-5.72-5.501-5.976V21.975C19.574,21.719,22,19.14,22,16.001  C22,12.691,19.308,10,15.999,10C12.691,10,10,12.691,10,16.001c0,3.139,2.425,5.718,5.499,5.974v10.717  C12.425,32.947,10,35.527,10,38.667c0,3.308,2.691,5.999,5.999,5.999c1.475,0,2.825-0.537,3.871-1.422l14.22,14.219  c-0.886,1.046-1.423,2.396-1.423,3.871c0,3.308,2.691,5.999,5.999,5.999c3.309,0,6.001-2.691,6.001-5.999  c0-1.475-0.537-2.825-1.423-3.871l14.22-14.219c1.045,0.885,2.395,1.422,3.869,1.422s2.825-0.537,3.871-1.423l14.22,14.219  C78.537,58.509,78,59.859,78,61.334c0,3.139,2.426,5.719,5.5,5.974v10.718C80.426,78.28,78,80.86,78,84.001  C78,87.309,80.691,90,83.999,90C87.308,90,90,87.309,90,84.001C90,80.86,87.574,78.281,84.5,78.025z">
        </path>
    </g>
    <g id="SvgjsG1111" featurekey="A7DQL5-0"
        transform="matrix(4.151437282562256,0,0,4.151437282562256,120.00000074233483,0.3979069879402033)"
        fill="#ffffff">
        <path
            d="M2.56 13.36 l3.96 6.64 l0.78 0 l-4.34 -7.28 z M2.64 12.14 l4.48 -7.84 l-0.8 0 l-5.64 9.94 l0 -9.98 l-0.68 0 l0 11.24 l0.68 0 l0 -0.02 l1.54 -2.68 z M10.46 14.16 l0 -9.36 l4.8 0 l0 -0.56 l-5.36 0 l0 9.92 l0.56 0 z M15.46 20 l0 -0.54 l-5 0 l0 -4.14 l0.8 0 l0 -0.54 l-1.36 0 l0 5.22 l5.56 0 z M26.32 4.24 l-0.86 0 l-3.78 10.2 l0 5.56 l0.84 0 l0 -5.56 z M19.480000000000004 5.699999999999999 l-0.54 -1.46 l-0.88 0 l0.56 1.46 l0.86 0 z M30.3 4.24 l-1.38 0 l0 0.64 l0.9 0 l0.44 0 c1.64 0 2.8734 0.47334 3.7 1.42 s1.24 2.18 1.24 3.7 l0 0.22 c0 1.4933 -0.41334 2.7134 -1.24 3.66 s-2.06 1.42 -3.7 1.42 l-0.64 0 l0 0 l-0.44 0 l-0.22 0 l-0.04 0 l0 4.7 l0.7 0 l0 -4.04 l0.68 0 c1.84 0 3.2366 -0.54334 4.19 -1.63 s1.43 -2.45 1.43 -4.09 l0 -0.26 c0 -1.64 -0.48334 -3.0066 -1.45 -4.1 s-2.3566 -1.64 -4.17 -1.64 z M43.86 6.140000000000001 c0 0.08 0.23666 0.84334 0.71 2.29 s0.99 3.03 1.55 4.75 s1.3133 3.9934 2.26 6.82 l0.86 0 l-5.3 -15.76 l-0.16 0 l-5.26 15.76 l0.82 0 z M43.5 15.52 l-0.72 0 l1.2 4.48 l0.72 0 z M53.64 20 c0.58666 0 1.1334 -0.06664 1.6401 -0.19998 l-0.16 -0.6 c-0.45334 0.12 -0.94668 0.18 -1.48 0.18 l-1.18 0 l0 -14.46 l1.18 0 c0.86666 0 1.6633 0.17 2.39 0.51 s1.3533 0.81 1.88 1.41 s0.94 1.3233 1.24 2.17 s0.45 1.7767 0.45 2.79 l0 0.42 c0 0.74666 -0.1 1.48 -0.3 2.2 s-0.47334 1.3833 -0.82 1.99 s-0.75332 1.1367 -1.22 1.59 s-0.96 0.78 -1.48 0.98 l0.24 0.58 c0.58666 -0.24 1.1333 -0.60334 1.64 -1.09 s0.95 -1.0567 1.33 -1.71 s0.68 -1.37 0.9 -2.15 s0.33 -1.5767 0.33 -2.39 l0 -0.42 c0 -1.0933 -0.16666 -2.0966 -0.5 -3.01 s-0.79334 -1.7033 -1.38 -2.37 s-1.28 -1.1867 -2.08 -1.56 s-1.6733 -0.56 -2.62 -0.56 l-1.8 0 l0 15.7 l1.8 0 z">
        </path>
    </g>
</svg>